<svg width="38" height="36" viewBox="0 0 38 36" fill="none" xmlns="http://www.w3.org/2000/svg">
<g filter="url(#filter0_d_1_488)">
<path d="M14.1664 32L11.6328 27.7L6.7 26.6336L7.2328 21.7336L4 18L7.2328 14.3L6.7 9.3664L11.6328 8.3336L14.1664 4L18.6664 6.0336L23.1664 4L25.7 8.3336L30.6328 9.3664L30.1 14.3L33.3328 18L30.1 21.7336L30.6328 26.6336L25.7 27.7L23.1664 32L18.6664 29.9664L14.1664 32ZM17.2328 22.5336L24.8 15.0336L23.1664 13.4664L17.2328 19.3664L14.1664 16.2336L12.5328 17.8336L17.2328 22.5336Z" fill="white"/>
</g>
<defs>
<filter id="filter0_d_1_488" x="0" y="0" width="37.3328" height="36" filterUnits="userSpaceOnUse" color-interpolation-filters="sRGB">
<feFlood flood-opacity="0" result="BackgroundImageFix"/>
<feColorMatrix in="SourceAlpha" type="matrix" values="0 0 0 0 0 0 0 0 0 0 0 0 0 0 0 0 0 0 127 0" result="hardAlpha"/>
<feOffset/>
<feGaussianBlur stdDeviation="2"/>
<feComposite in2="hardAlpha" operator="out"/>
<feColorMatrix type="matrix" values="0 0 0 0 0 0 0 0 0 0 0 0 0 0 0 0 0 0 0.22 0"/>
<feBlend mode="normal" in2="BackgroundImageFix" result="effect1_dropShadow_1_488"/>
<feBlend mode="normal" in="SourceGraphic" in2="effect1_dropShadow_1_488" result="shape"/>
</filter>
</defs>
</svg>
