<svg width="48" height="47" viewBox="0 0 48 47" fill="none" xmlns="http://www.w3.org/2000/svg">
<g clip-path="url(#clip0_1_508)">
<path d="M34 3H12.9365C12.4967 2.99942 12.0621 3.09588 11.6639 3.28248C11.2656 3.46909 10.9134 3.74126 10.6323 4.07959L6.69482 8.80371C6.2462 9.34315 6.0004 10.0225 6 10.7241V38C6.00122 38.788 6.31234 39.5439 6.86616 40.1045C7.41999 40.665 8.17207 40.9853 8.96 40.996V42C8.96087 42.7954 9.27722 43.5579 9.83964 44.1204C10.4021 44.6828 11.1646 44.9991 11.96 45H38.96C39.7554 44.9991 40.5179 44.6828 41.0804 44.1204C41.6428 43.5579 41.9591 42.7954 41.96 42V11C41.9591 10.2046 41.6428 9.44206 41.0804 8.87964C40.5179 8.31722 39.7554 8.00087 38.96 8H37V6C36.9991 5.20462 36.6828 4.44206 36.1204 3.87964C35.5579 3.31722 34.7954 3.00087 34 3ZM12 5.5625V10H8.30151L12 5.5625ZM8 38V12H12C12.5303 11.9995 13.0387 11.7886 13.4136 11.4136C13.7886 11.0387 13.9995 10.5303 14 10V5H34C34.2651 5.00035 34.5193 5.10581 34.7067 5.29328C34.8942 5.48074 34.9997 5.73489 35 6V38C34.9997 38.2651 34.8942 38.5193 34.7067 38.7067C34.5193 38.8942 34.2651 38.9997 34 39H9C8.73489 38.9997 8.48073 38.8942 8.29327 38.7067C8.10581 38.5193 8.00034 38.2651 8 38ZM38.96 10C39.2251 10.0003 39.4793 10.1058 39.6667 10.2933C39.8542 10.4807 39.9597 10.7349 39.96 11V42C39.9597 42.2651 39.8542 42.5193 39.6667 42.7067C39.4793 42.8942 39.2251 42.9997 38.96 43H11.96C11.6949 42.9997 11.4407 42.8942 11.2533 42.7067C11.0658 42.5193 10.9603 42.2651 10.96 42V41H34C34.7954 40.9991 35.5579 40.6828 36.1204 40.1204C36.6828 39.5579 36.9991 38.7954 37 38V10H38.96Z" fill="#009FC0"/>
<path d="M22 29C24.0767 29 26.1068 28.3842 27.8335 27.2304C29.5602 26.0767 30.906 24.4368 31.7007 22.5182C32.4955 20.5995 32.7034 18.4883 32.2982 16.4515C31.8931 14.4147 30.8931 12.5438 29.4246 11.0754C27.9562 9.60692 26.0852 8.6069 24.0484 8.20175C22.0116 7.79661 19.9004 8.00454 17.9818 8.79926C16.0632 9.59398 14.4233 10.9398 13.2696 12.6665C12.1158 14.3932 11.5 16.4233 11.5 18.5C11.5032 21.2838 12.6105 23.9526 14.5789 25.9211C16.5474 27.8895 19.2162 28.9968 22 29ZM22 10C23.6811 10 25.3245 10.4985 26.7223 11.4325C28.1202 12.3665 29.2096 13.694 29.853 15.2472C30.4963 16.8004 30.6646 18.5094 30.3367 20.1583C30.0087 21.8071 29.1992 23.3217 28.0104 24.5104C26.8217 25.6992 25.3071 26.5087 23.6583 26.8367C22.0094 27.1646 20.3004 26.9963 18.7472 26.353C17.194 25.7096 15.8665 24.6202 14.9325 23.2223C13.9985 21.8245 13.5 20.1811 13.5 18.5C13.5025 16.2464 14.3989 14.0859 15.9924 12.4924C17.5859 10.8989 19.7464 10.0025 22 10Z" fill="#009FC0"/>
<path d="M20.3467 20.7114C20.3467 20.4462 20.2413 20.1919 20.0538 20.0043C19.8663 19.8168 19.6119 19.7114 19.3467 19.7114C19.0815 19.7114 18.8271 19.8168 18.6396 20.0043C18.452 20.1919 18.3467 20.4462 18.3467 20.7114C18.3831 21.4461 18.664 22.1476 19.1447 22.7044C19.6255 23.2612 20.2785 23.6414 21 23.7847V24.3965C21 24.6617 21.1054 24.9161 21.2929 25.1036C21.4804 25.2911 21.7348 25.3965 22 25.3965C22.2652 25.3965 22.5196 25.2911 22.7071 25.1036C22.8946 24.9161 23 24.6617 23 24.3965V23.7847C23.7215 23.6414 24.3745 23.2612 24.8553 22.7044C25.336 22.1476 25.6169 21.4461 25.6533 20.7114C25.617 19.9766 25.3361 19.2751 24.8554 18.7182C24.3746 18.1613 23.7216 17.781 23 17.6377V15.3381C23.183 15.4249 23.3399 15.5585 23.4546 15.7254C23.5693 15.8923 23.6379 16.0866 23.6533 16.2886C23.6533 16.5538 23.7587 16.8081 23.9462 16.9957C24.1337 17.1832 24.3881 17.2886 24.6533 17.2886C24.9185 17.2886 25.1729 17.1832 25.3604 16.9957C25.548 16.8081 25.6533 16.5538 25.6533 16.2886C25.6169 15.5539 25.336 14.8524 24.8553 14.2956C24.3745 13.7388 23.7215 13.3586 23 13.2153V12.6035C23 12.3383 22.8946 12.084 22.7071 11.8964C22.5196 11.7089 22.2652 11.6035 22 11.6035C21.7348 11.6035 21.4804 11.7089 21.2929 11.8964C21.1054 12.084 21 12.3383 21 12.6035V13.2153C20.2785 13.3586 19.6255 13.7388 19.1447 14.2956C18.664 14.8524 18.3831 15.5539 18.3467 16.2886C18.383 17.0234 18.6639 17.7249 19.1446 18.2818C19.6254 18.8387 20.2784 19.219 21 19.3623V21.6617C20.817 21.575 20.6601 21.4415 20.5454 21.2746C20.4306 21.1077 20.3621 20.9134 20.3467 20.7114ZM23.6533 20.7114C23.6379 20.9134 23.5694 21.1077 23.4546 21.2746C23.3399 21.4415 23.183 21.575 23 21.6617V19.7606C23.1831 19.8474 23.34 19.9811 23.4547 20.148C23.5695 20.315 23.638 20.5094 23.6533 20.7114ZM20.3467 16.2886C20.3621 16.0866 20.4307 15.8923 20.5454 15.7254C20.6601 15.5585 20.817 15.4249 21 15.3381V17.2394C20.8169 17.1526 20.66 17.019 20.5453 16.852C20.4305 16.685 20.362 16.4906 20.3467 16.2886Z" fill="#009FC0"/>
<path d="M12 32.5H31C31.2652 32.5 31.5196 32.3946 31.7071 32.2071C31.8946 32.0196 32 31.7652 32 31.5C32 31.2348 31.8946 30.9804 31.7071 30.7929C31.5196 30.6054 31.2652 30.5 31 30.5H12C11.7348 30.5 11.4804 30.6054 11.2929 30.7929C11.1054 30.9804 11 31.2348 11 31.5C11 31.7652 11.1054 32.0196 11.2929 32.2071C11.4804 32.3946 11.7348 32.5 12 32.5Z" fill="#009FC0"/>
<path d="M12 36H31C31.2652 36 31.5196 35.8946 31.7071 35.7071C31.8946 35.5196 32 35.2652 32 35C32 34.7348 31.8946 34.4804 31.7071 34.2929C31.5196 34.1054 31.2652 34 31 34H12C11.7348 34 11.4804 34.1054 11.2929 34.2929C11.1054 34.4804 11 34.7348 11 35C11 35.2652 11.1054 35.5196 11.2929 35.7071C11.4804 35.8946 11.7348 36 12 36Z" fill="#009FC0"/>
</g>
<defs>
<clipPath id="clip0_1_508">
<rect width="48" height="47" fill="white"/>
</clipPath>
</defs>
</svg>
