<svg width="46" height="42" viewBox="0 0 46 42" fill="none" xmlns="http://www.w3.org/2000/svg">
<g clip-path="url(#clip0_1_516)">
<path d="M18.5726 24.1767H18.0802C18.016 24.1804 17.9518 24.1704 17.8919 24.1474C17.832 24.1243 17.7779 24.0888 17.7332 24.0432C17.6885 23.9977 17.6543 23.9431 17.6329 23.8833C17.6116 23.8234 17.6035 23.7597 17.6094 23.6966C17.6053 23.6349 17.6147 23.5731 17.6371 23.5154C17.6594 23.4577 17.6942 23.4055 17.7389 23.3623C17.7836 23.3191 17.8372 23.2859 17.8961 23.2651C17.9551 23.2442 18.0178 23.2362 18.0802 23.2416H19.4596C19.6502 23.2416 19.833 23.1668 19.9678 23.0338C20.1026 22.9007 20.1784 22.7203 20.1784 22.5321C20.1784 22.3439 20.1026 22.1635 19.9678 22.0304C19.833 21.8974 19.6502 21.8226 19.4596 21.8226H19.3413V21.2838C19.3413 21.0956 19.2656 20.9152 19.1308 20.7821C18.996 20.6491 18.8132 20.5743 18.6226 20.5743C18.432 20.5743 18.2491 20.6491 18.1143 20.7821C17.9796 20.9152 17.9038 21.0956 17.9038 21.2838V21.831C17.4257 21.8578 16.9771 22.0678 16.6536 22.4162C16.3301 22.7647 16.1572 23.2241 16.1719 23.6966C16.1655 23.9464 16.2104 24.1948 16.3039 24.4271C16.3974 24.6593 16.5374 24.8704 16.7157 25.0478C16.894 25.2252 17.1067 25.3652 17.3412 25.4594C17.5757 25.5535 17.8271 25.5998 18.0802 25.5956H18.5726C18.6354 25.5875 18.6993 25.5935 18.7595 25.6131C18.8197 25.6327 18.8746 25.6655 18.9202 25.709C18.9658 25.7525 19.0009 25.8055 19.0228 25.8642C19.0447 25.9229 19.053 25.9858 19.0469 26.048C19.0515 26.1114 19.0426 26.1749 19.0206 26.2346C18.9986 26.2942 18.9641 26.3486 18.9193 26.3941C18.8745 26.4397 18.8204 26.4754 18.7607 26.4988C18.7009 26.5223 18.6368 26.533 18.5726 26.5302H17.193C17.0024 26.5302 16.8195 26.605 16.6847 26.738C16.55 26.8711 16.4742 27.0515 16.4742 27.2397C16.4742 27.4279 16.55 27.6083 16.6847 27.7414C16.8195 27.8744 17.0024 27.9492 17.193 27.9492H17.9038V28.3784C17.9038 28.5665 17.9795 28.747 18.1143 28.88C18.2491 29.0131 18.4319 29.0878 18.6226 29.0878C18.8132 29.0878 18.996 29.0131 19.1308 28.88C19.2656 28.747 19.3413 28.5665 19.3413 28.3784V27.8011C19.5954 27.6979 19.8222 27.5386 20.0041 27.3353C20.3176 26.9782 20.4884 26.5205 20.4844 26.048C20.4918 25.799 20.4473 25.551 20.3536 25.3196C20.26 25.0883 20.1191 24.8783 19.9399 24.7029C19.7606 24.5274 19.5468 24.3902 19.3116 24.2997C19.0764 24.2091 18.8248 24.1673 18.5726 24.1767Z" fill="#009FC0"/>
<path d="M44.2599 38.3926C43.3345 39.6441 40.3233 40.7939 36.2969 40.7939C32.2704 40.7939 29.2593 39.6441 28.3338 38.3926C27.7143 38.0751 27.1406 37.6772 26.628 37.2096C26.6061 37.3391 26.5947 37.4701 26.5938 37.6014C26.5937 40.2303 30.7652 42.2128 36.2969 42.2128C41.8286 42.2128 46 40.2303 46 37.6014C45.9991 37.4701 45.9877 37.3391 45.9658 37.2096C45.4531 37.6772 44.8794 38.0751 44.2599 38.3926Z" fill="#009FC0"/>
<path d="M1.37099 14.1892C1.0079 14.1892 0.659644 14.3314 0.402621 14.5845C0.145597 14.8377 0.000801356 15.1811 0 15.5395V34.1226C0.000801356 34.481 0.145597 34.8245 0.402621 35.0776C0.659644 35.3308 1.0079 35.473 1.37099 35.473H25.4178C25.2436 35.0197 25.155 34.5388 25.1562 34.0541H6.75394C6.41321 32.7948 5.74243 31.6465 4.80913 30.7245C3.87582 29.8025 2.71292 29.1395 1.4375 28.8022V20.8599C2.71292 20.5226 3.87582 19.8596 4.80913 18.9376C5.74243 18.0157 6.41321 16.8673 6.75394 15.6081H25.2191C25.2863 15.2384 25.4062 14.8801 25.5754 14.5437C25.5175 14.4277 25.4641 14.3098 25.4178 14.1892H1.37099ZM5.25193 34.0541H1.4375V30.2765C2.32526 30.5734 3.13147 31.0688 3.79316 31.7241C4.45485 32.3794 4.95411 33.1768 5.25193 34.0541ZM1.4375 19.3856V15.6081H5.25193C4.95411 16.4854 4.45485 17.2828 3.79316 17.9381C3.13147 18.5933 2.32526 19.0888 1.4375 19.3856Z" fill="#009FC0"/>
<path d="M44.2599 34.8453C43.3345 36.0968 40.3233 37.2466 36.2969 37.2466C32.2704 37.2466 29.2593 36.0968 28.3338 34.8453C27.7143 34.5278 27.1406 34.1299 26.628 33.6623C26.6061 33.7918 26.5947 33.9228 26.5938 34.0541C26.5937 36.683 30.7652 38.6655 36.2969 38.6655C41.8286 38.6655 46 36.683 46 34.0541C45.9991 33.9228 45.9877 33.7918 45.9658 33.6623C45.4531 34.1299 44.8794 34.5278 44.2599 34.8453Z" fill="#009FC0"/>
<path d="M25.2079 22.785C24.7154 21.1559 23.6476 19.7551 22.1982 18.8365C20.7489 17.918 19.014 17.5427 17.3083 17.7786C15.6027 18.0146 14.0391 18.8462 12.9014 20.1225C11.7637 21.3989 11.1271 23.0355 11.1072 24.7355C11.0872 26.4354 11.6852 28.0862 12.7927 29.3882C13.9002 30.6902 15.4438 31.5573 17.1435 31.8322C18.8432 32.1071 20.5864 31.7715 22.0569 30.8864C23.5274 30.0012 24.6277 28.6251 25.1584 27.0078C25.1582 26.9915 25.1562 26.9758 25.1562 26.9595C25.1556 26.4252 25.2643 25.8964 25.4758 25.4047C25.4859 25.2817 25.5015 25.1602 25.5051 25.0355C25.2742 24.5247 25.1553 23.9715 25.1562 23.4122C25.157 23.2021 25.1743 22.9924 25.2079 22.785ZM18.3281 30.5068C17.1909 30.5068 16.0792 30.1739 15.1336 29.5502C14.188 28.9266 13.451 28.0402 13.0158 27.0031C12.5806 25.966 12.4667 24.8248 12.6886 23.7238C12.9105 22.6228 13.4581 21.6115 14.2623 20.8178C15.0664 20.024 16.091 19.4835 17.2063 19.2645C18.3217 19.0455 19.4779 19.1579 20.5286 19.5874C21.5792 20.017 22.4773 20.7445 23.1091 21.6778C23.7409 22.6112 24.0781 23.7085 24.0781 24.8311C24.0764 26.3358 23.47 27.7785 22.3921 28.8425C21.3141 29.9065 19.8526 30.505 18.3281 30.5068Z" fill="#009FC0"/>
<path d="M44.2599 31.298C43.3345 32.5495 40.3233 33.6993 36.2969 33.6993C32.2704 33.6993 29.2593 32.5495 28.3338 31.298C27.7143 30.9805 27.1406 30.5826 26.628 30.115C26.6061 30.2445 26.5947 30.3755 26.5938 30.5068C26.5937 33.1357 30.7652 35.1182 36.2969 35.1182C41.8286 35.1182 46 33.1357 46 30.5068C45.9991 30.3755 45.9877 30.2445 45.9658 30.115C45.4531 30.5826 44.8794 30.9805 44.2599 31.298Z" fill="#009FC0"/>
<path d="M44.2599 27.7507C43.3345 29.0022 40.3233 30.152 36.2969 30.152C32.2704 30.152 29.2593 29.0022 28.3338 27.7507C27.7143 27.4332 27.1406 27.0353 26.628 26.5677C26.6061 26.6972 26.5947 26.8282 26.5938 26.9595C26.5937 29.5884 30.7652 31.5709 36.2969 31.5709C41.8286 31.5709 46 29.5884 46 26.9595C45.9991 26.8282 45.9877 26.6972 45.9658 26.5677C45.4531 27.0353 44.8794 27.4332 44.2599 27.7507Z" fill="#009FC0"/>
<path d="M44.2599 24.2034C43.3345 25.4549 40.3233 26.6047 36.2969 26.6047C32.2704 26.6047 29.2593 25.4549 28.3338 24.2034C27.7143 23.8859 27.1406 23.488 26.628 23.0204C26.6061 23.1499 26.5947 23.2809 26.5938 23.4122C26.5937 26.0411 30.7652 28.0237 36.2969 28.0237C41.8286 28.0237 46 26.0411 46 23.4122C45.9991 23.2809 45.9877 23.1499 45.9658 23.0204C45.4531 23.488 44.8794 23.8859 44.2599 24.2034Z" fill="#009FC0"/>
<path d="M44.2599 20.6561C43.3345 21.9076 40.3233 23.0574 36.2969 23.0574C32.2704 23.0574 29.2593 21.9076 28.3338 20.6561C27.7143 20.3386 27.1406 19.9407 26.628 19.4731C26.6061 19.6026 26.5947 19.7336 26.5938 19.8649C26.5937 22.4938 30.7652 24.4763 36.2969 24.4763C41.8286 24.4763 46 22.4938 46 19.8649C45.9991 19.7336 45.9877 19.6026 45.9658 19.4731C45.4531 19.9407 44.8794 20.3386 44.2599 20.6561Z" fill="#009FC0"/>
<path d="M44.2599 17.1088C43.3345 18.3603 40.3233 19.5101 36.2969 19.5101C32.2704 19.5101 29.2593 18.3603 28.3338 17.1088C27.7143 16.7913 27.1406 16.3934 26.628 15.9258C26.6061 16.0553 26.5947 16.1863 26.5938 16.3176C26.5937 18.9465 30.7652 20.9291 36.2969 20.9291C41.8286 20.9291 46 18.9465 46 16.3176C45.9991 16.1863 45.9877 16.0553 45.9658 15.9258C45.4531 16.3934 44.8794 16.7913 44.2599 17.1088Z" fill="#009FC0"/>
<path d="M6.04287 8.86824C5.67978 8.86825 5.33152 9.01043 5.0745 9.26358C4.81747 9.51672 4.67268 9.86017 4.67188 10.2186V12.7703H6.10938V10.2872H9.92383C9.59569 11.2319 9.04027 12.084 8.30521 12.7703H10.212C10.7652 12.0221 11.1755 11.1807 11.4227 10.2872H26.0207C26.4579 9.72961 26.9882 9.24975 27.5888 8.86824H6.04287Z" fill="#009FC0"/>
<path d="M44.6292 3.19257H10.7147C10.3517 3.19258 10.0034 3.33475 9.74637 3.5879C9.48935 3.84105 9.34455 4.1845 9.34375 4.54289V7.44932H10.7812V4.61148H14.6038C14.2984 5.67188 13.7407 6.64485 12.9771 7.44932H14.8838C15.4504 6.57865 15.8622 5.61893 16.1017 4.61148H39.2413C39.4451 5.48263 39.7756 6.32008 40.2225 7.09782C41.0778 7.255 41.9192 7.47924 42.7385 7.76841C41.8343 7.05486 41.129 5.80898 40.74 4.61148H44.5625V8.59886C44.7381 8.69951 44.9051 8.80558 45.0678 8.91416C45.2261 9.02021 45.3779 9.12994 45.5233 9.24335C45.6906 9.37395 45.8519 9.50779 46 9.64855V4.54289C45.9992 4.18452 45.8545 3.84107 45.5975 3.58792C45.3405 3.33477 44.9923 3.19258 44.6292 3.19257Z" fill="#009FC0"/>
<path d="M36.2969 8.15878C30.7652 8.15878 26.5938 10.1413 26.5938 12.7703C26.5938 15.3992 30.7652 17.3818 36.2969 17.3818C41.8286 17.3818 46 15.3992 46 12.7703C46 10.1413 41.8286 8.15878 36.2969 8.15878ZM36.2969 15.9628C31.4257 15.9628 28.0312 14.2803 28.0312 12.7703C28.0312 11.2602 31.4257 9.5777 36.2969 9.5777C41.1681 9.5777 44.5625 11.2602 44.5625 12.7703C44.5625 14.2803 41.1681 15.9628 36.2969 15.9628Z" fill="#009FC0"/>
</g>
<defs>
<clipPath id="clip0_1_516">
<rect width="46" height="42" fill="white"/>
</clipPath>
</defs>
</svg>
