<svg width="76" height="75" viewBox="0 0 76 75" fill="none" xmlns="http://www.w3.org/2000/svg">
<mask id="mask0_1_1597" style="mask-type:alpha" maskUnits="userSpaceOnUse" x="0" y="0" width="76" height="75">
<rect x="0.5" width="75" height="75" fill="#009FC0"/>
</mask>
<g mask="url(#mask0_1_1597)">
<path d="M33.625 51.875L55.6562 29.8438L51.2812 25.4688L33.625 43.125L24.7188 34.2188L20.3438 38.5938L33.625 51.875ZM38 68.75C33.6771 68.75 29.6146 67.9297 25.8125 66.2891C22.0104 64.6484 18.7031 62.4219 15.8906 59.6094C13.0781 56.7969 10.8516 53.4896 9.21094 49.6875C7.57031 45.8854 6.75 41.8229 6.75 37.5C6.75 33.1771 7.57031 29.1146 9.21094 25.3125C10.8516 21.5104 13.0781 18.2031 15.8906 15.3906C18.7031 12.5781 22.0104 10.3516 25.8125 8.71094C29.6146 7.07031 33.6771 6.25 38 6.25C42.3229 6.25 46.3854 7.07031 50.1875 8.71094C53.9896 10.3516 57.2969 12.5781 60.1094 15.3906C62.9219 18.2031 65.1484 21.5104 66.7891 25.3125C68.4297 29.1146 69.25 33.1771 69.25 37.5C69.25 41.8229 68.4297 45.8854 66.7891 49.6875C65.1484 53.4896 62.9219 56.7969 60.1094 59.6094C57.2969 62.4219 53.9896 64.6484 50.1875 66.2891C46.3854 67.9297 42.3229 68.75 38 68.75ZM38 62.5C44.9792 62.5 50.8906 60.0781 55.7344 55.2344C60.5781 50.3906 63 44.4792 63 37.5C63 30.5208 60.5781 24.6094 55.7344 19.7656C50.8906 14.9219 44.9792 12.5 38 12.5C31.0208 12.5 25.1094 14.9219 20.2656 19.7656C15.4219 24.6094 13 30.5208 13 37.5C13 44.4792 15.4219 50.3906 20.2656 55.2344C25.1094 60.0781 31.0208 62.5 38 62.5Z" fill="#009FC0"/>
</g>
</svg>
