<svg width="47" height="50" viewBox="0 0 47 50" fill="none" xmlns="http://www.w3.org/2000/svg">
<path d="M8.07812 29.8507H6.60938V28.3582H5.14062V29.8507H3.67188C3.47711 29.8507 3.29032 29.9294 3.15259 30.0693C3.01487 30.2093 2.9375 30.3991 2.9375 30.597V44.0299C2.9375 44.2278 3.01487 44.4176 3.15259 44.5575C3.29032 44.6975 3.47711 44.7761 3.67188 44.7761H5.14062V46.2687H6.60938V44.7761H8.07812C8.27289 44.7761 8.45968 44.6975 8.59741 44.5575C8.73513 44.4176 8.8125 44.2278 8.8125 44.0299V30.597C8.8125 30.3991 8.73513 30.2093 8.59741 30.0693C8.45968 29.9294 8.27289 29.8507 8.07812 29.8507ZM7.34375 43.2836H4.40625V31.3433H7.34375V43.2836Z" fill="#009FC0"/>
<path d="M16.8906 23.8806H15.4219V22.3881H13.9531V23.8806H12.4844C12.2896 23.8806 12.1028 23.9592 11.9651 24.0992C11.8274 24.2391 11.75 24.4289 11.75 24.6269V30.597C11.75 30.7949 11.8274 30.9848 11.9651 31.1247C12.1028 31.2647 12.2896 31.3433 12.4844 31.3433H13.9531V34.3284H15.4219V31.3433H16.8906C17.0854 31.3433 17.2722 31.2647 17.4099 31.1247C17.5476 30.9848 17.625 30.7949 17.625 30.597V24.6269C17.625 24.4289 17.5476 24.2391 17.4099 24.0992C17.2722 23.9592 17.0854 23.8806 16.8906 23.8806ZM16.1562 29.8507H13.2188V25.3731H16.1562V29.8507Z" fill="#009FC0"/>
<path d="M25.7031 29.8507H24.2344V25.3731H22.7656V29.8507H21.2969C21.1021 29.8507 20.9153 29.9294 20.7776 30.0693C20.6399 30.2093 20.5625 30.3991 20.5625 30.597V36.5672C20.5625 36.7651 20.6399 36.9549 20.7776 37.0949C20.9153 37.2348 21.1021 37.3134 21.2969 37.3134H22.7656V38.806H24.2344V37.3134H25.7031C25.8979 37.3134 26.0847 37.2348 26.2224 37.0949C26.3601 36.9549 26.4375 36.7651 26.4375 36.5672V30.597C26.4375 30.3991 26.3601 30.2093 26.2224 30.0693C26.0847 29.9294 25.8979 29.8507 25.7031 29.8507ZM24.9688 35.8209H22.0312V31.3433H24.9688V35.8209Z" fill="#009FC0"/>
<path d="M34.5156 20.1493H33.0469V18.6567H31.5781V20.1493H30.1094C29.9146 20.1493 29.7278 20.2279 29.5901 20.3678C29.4524 20.5078 29.375 20.6976 29.375 20.8955V30.597C29.375 30.7949 29.4524 30.9848 29.5901 31.1247C29.7278 31.2647 29.9146 31.3433 30.1094 31.3433H31.5781V34.3284H33.0469V31.3433H34.5156C34.7104 31.3433 34.8972 31.2647 35.0349 31.1247C35.1726 30.9848 35.25 30.7949 35.25 30.597V20.8955C35.25 20.6976 35.1726 20.5078 35.0349 20.3678C34.8972 20.2279 34.7104 20.1493 34.5156 20.1493ZM33.7812 29.8507H30.8438V21.6418H33.7812V29.8507Z" fill="#009FC0"/>
<path d="M43.3281 13.4328H41.8594V11.9403H40.3906V13.4328H38.9219C38.7271 13.4328 38.5403 13.5115 38.4026 13.6514C38.2649 13.7914 38.1875 13.9812 38.1875 14.1791V20.8955C38.1875 21.0934 38.2649 21.2833 38.4026 21.4232C38.5403 21.5632 38.7271 21.6418 38.9219 21.6418H40.3906V23.1343H41.8594V21.6418H43.3281C43.5229 21.6418 43.7097 21.5632 43.8474 21.4232C43.9851 21.2833 44.0625 21.0934 44.0625 20.8955V14.1791C44.0625 13.9812 43.9851 13.7914 43.8474 13.6514C43.7097 13.5115 43.5229 13.4328 43.3281 13.4328ZM42.5938 20.1492H39.6562V14.9254H42.5938V20.1492Z" fill="#009FC0"/>
<path d="M22.9807 23.6619C23.1184 23.8018 23.3052 23.8804 23.4999 23.8804C23.6946 23.8804 23.8814 23.8018 24.0191 23.6619L44.5816 2.76641L43.5432 1.71119L23.4999 22.0791L15.2066 13.6515C15.0689 13.5116 14.8821 13.433 14.6874 13.433C14.4927 13.433 14.3059 13.5116 14.1682 13.6515L1.68384 26.3381L2.72224 27.3933L14.6874 15.2343L22.9807 23.6619Z" fill="#009FC0"/>
<path d="M23.5 17.9104C25.0977 17.9104 26.6595 17.429 27.988 16.527C29.3164 15.625 30.3518 14.3429 30.9632 12.8429C31.5746 11.3429 31.7346 9.69238 31.4229 8.1C31.1112 6.50762 30.3418 5.04493 29.2121 3.89688C28.0824 2.74884 26.643 1.96701 25.076 1.65027C23.509 1.33352 21.8847 1.49609 20.4086 2.1174C18.9326 2.73872 17.6709 3.79088 16.7833 5.14084C15.8956 6.49079 15.4219 8.07791 15.4219 9.70149C15.4244 11.8779 16.2763 13.9643 17.7907 15.5033C19.3051 17.0422 21.3583 17.9079 23.5 17.9104ZM23.5 2.98507C24.8072 2.98507 26.0851 3.37898 27.172 4.11699C28.2589 4.855 29.106 5.90396 29.6063 7.13123C30.1065 8.35849 30.2374 9.70894 29.9824 11.0118C29.7274 12.3147 29.0979 13.5114 28.1735 14.4507C27.2492 15.39 26.0715 16.0297 24.7894 16.2889C23.5073 16.548 22.1784 16.415 20.9707 15.9067C19.763 15.3983 18.7308 14.5374 18.0045 13.4329C17.2783 12.3284 16.8906 11.0299 16.8906 9.70149C16.8928 7.92085 17.5898 6.21377 18.8288 4.95466C20.0679 3.69556 21.7477 2.98724 23.5 2.98507Z" fill="#009FC0"/>
<path d="M22.0312 12.6866C21.8365 12.6866 21.6497 12.6079 21.512 12.468C21.3742 12.328 21.2969 12.1382 21.2969 11.9403H19.8281C19.8281 12.5341 20.0602 13.1035 20.4734 13.5234C20.8866 13.9432 21.4469 14.1791 22.0312 14.1791H22.7656V14.9254H24.2344V14.1791H24.9688C25.5531 14.1791 26.1134 13.9432 26.5266 13.5234C26.9398 13.1035 27.1719 12.5341 27.1719 11.9403V11.194C27.1719 10.6003 26.9398 10.0308 26.5266 9.61095C26.1134 9.19109 25.5531 8.95522 24.9688 8.95522H24.2344V6.71641H24.9688C25.1635 6.71641 25.3503 6.79504 25.488 6.93499C25.6258 7.07494 25.7031 7.26476 25.7031 7.46268H27.1719C27.1719 6.86891 26.9398 6.29947 26.5266 5.87961C26.1134 5.45975 25.5531 5.22388 24.9688 5.22388H24.2344V4.47761H22.7656V5.22388H22.0312C21.4469 5.22388 20.8866 5.45975 20.4734 5.87961C20.0602 6.29947 19.8281 6.86891 19.8281 7.46268V8.20895C19.8281 8.80272 20.0602 9.37217 20.4734 9.79203C20.8866 10.2119 21.4469 10.4478 22.0312 10.4478H22.7656V12.6866H22.0312ZM22.0312 8.95522C21.8365 8.95522 21.6497 8.8766 21.512 8.73664C21.3742 8.59669 21.2969 8.40687 21.2969 8.20895V7.46268C21.2969 7.26476 21.3742 7.07494 21.512 6.93499C21.6497 6.79504 21.8365 6.71641 22.0312 6.71641H22.7656V8.95522H22.0312ZM24.2344 10.4478H24.9688C25.1635 10.4478 25.3503 10.5264 25.488 10.6663C25.6258 10.8063 25.7031 10.9961 25.7031 11.194V11.9403C25.7031 12.1382 25.6258 12.328 25.488 12.468C25.3503 12.6079 25.1635 12.6866 24.9688 12.6866H24.2344V10.4478Z" fill="#009FC0"/>
</svg>
