<svg width="32" height="33" viewBox="0 0 32 33" fill="none" xmlns="http://www.w3.org/2000/svg">
<mask id="mask0_432_90" style="mask-type:alpha" maskUnits="userSpaceOnUse" x="0" y="0" width="32" height="33">
<rect y="0.5" width="32" height="32" fill="#E9B430"/>
</mask>
<g mask="url(#mask0_432_90)">
<path fill-rule="evenodd" clip-rule="evenodd" d="M24.5937 26.7512L23.8948 24.4218C23.3445 22.5888 21.6576 21.3333 19.7441 21.3333H12.2561C10.3426 21.3333 8.65573 22.5888 8.1054 24.4218L7.40649 26.7512C9.69821 28.7731 12.7068 30 16.0001 30C19.2934 30 22.302 28.7731 24.5937 26.7512Z" fill="#E9B430"/>
<path fill-rule="evenodd" clip-rule="evenodd" d="M25.5921 25.7713C27.708 23.4579 29 20.3788 29 17C29 9.82524 23.1748 4 16 4C8.82524 4 3 9.82524 3 17C3 20.3788 4.29196 23.4579 6.40786 25.7713L6.91981 24.0658C7.62676 21.7091 9.7959 20.0952 12.256 20.0952C14.539 20.0952 17.461 20.0952 19.744 20.0952C22.2041 20.0952 24.3732 21.7091 25.0802 24.0658L25.5921 25.7713ZM16 7.71429C12.9252 7.71429 10.4286 10.2109 10.4286 13.2857C10.4286 16.3605 12.9252 18.8571 16 18.8571C19.0748 18.8571 21.5714 16.3605 21.5714 13.2857C21.5714 10.2109 19.0748 7.71429 16 7.71429ZM16 8.95238C18.3914 8.95238 20.3333 10.8943 20.3333 13.2857C20.3333 15.6771 18.3914 17.619 16 17.619C13.6086 17.619 11.6667 15.6771 11.6667 13.2857C11.6667 10.8943 13.6086 8.95238 16 8.95238Z" fill="#E9B430"/>
</g>
</svg>
