<svg width="34" height="34" viewBox="0 0 34 34" fill="none" xmlns="http://www.w3.org/2000/svg">
<circle cx="17" cy="17" r="17" fill="#01354E"/>
<mask id="mask0_2_636" style="mask-type:alpha" maskUnits="userSpaceOnUse" x="5" y="4" width="24" height="24">
<rect x="5" y="4" width="24" height="24" fill="white"/>
</mask>
<g mask="url(#mask0_2_636)">
<path d="M17 16C15.9 16 14.9583 15.6083 14.175 14.825C13.3917 14.0417 13 13.1 13 12C13 10.9 13.3917 9.95833 14.175 9.175C14.9583 8.39167 15.9 8 17 8C18.1 8 19.0417 8.39167 19.825 9.175C20.6083 9.95833 21 10.9 21 12C21 13.1 20.6083 14.0417 19.825 14.825C19.0417 15.6083 18.1 16 17 16ZM9 24V21.2C9 20.6333 9.14583 20.1125 9.4375 19.6375C9.72917 19.1625 10.1167 18.8 10.6 18.55C11.6333 18.0333 12.6833 17.6458 13.75 17.3875C14.8167 17.1292 15.9 17 17 17C18.1 17 19.1833 17.1292 20.25 17.3875C21.3167 17.6458 22.3667 18.0333 23.4 18.55C23.8833 18.8 24.2708 19.1625 24.5625 19.6375C24.8542 20.1125 25 20.6333 25 21.2V24H9ZM11 22H23V21.2C23 21.0167 22.9542 20.85 22.8625 20.7C22.7708 20.55 22.65 20.4333 22.5 20.35C21.6 19.9 20.6917 19.5625 19.775 19.3375C18.8583 19.1125 17.9333 19 17 19C16.0667 19 15.1417 19.1125 14.225 19.3375C13.3083 19.5625 12.4 19.9 11.5 20.35C11.35 20.4333 11.2292 20.55 11.1375 20.7C11.0458 20.85 11 21.0167 11 21.2V22ZM17 14C17.55 14 18.0208 13.8042 18.4125 13.4125C18.8042 13.0208 19 12.55 19 12C19 11.45 18.8042 10.9792 18.4125 10.5875C18.0208 10.1958 17.55 10 17 10C16.45 10 15.9792 10.1958 15.5875 10.5875C15.1958 10.9792 15 11.45 15 12C15 12.55 15.1958 13.0208 15.5875 13.4125C15.9792 13.8042 16.45 14 17 14Z" fill="white"/>
</g>
</svg>
